<?xml version="1.0" standalone="no"?>
<!DOCTYPE svg PUBLIC "-//W3C//DTD SVG 20010904//EN"
 "http://www.w3.org/TR/2001/REC-SVG-20010904/DTD/svg10.dtd">
<svg version="1.0" xmlns="http://www.w3.org/2000/svg"
 width="192.000000pt" height="192.000000pt" viewBox="0 0 192.000000 192.000000"
 preserveAspectRatio="xMidYMid meet">

<g transform="translate(0.000000,192.000000) scale(0.100000,-0.100000)"
fill="#000000" stroke="none">
<path d="M785 1874 c-22 -2 -117 -9 -212 -15 l-172 -12 1 -62 c3 -101 -34
-139 -151 -157 l-71 -10 0 -300 0 -299 22 3 23 3 5 275 5 275 25 3 c100 13
169 62 190 137 7 24 10 53 7 64 -6 26 1 27 248 42 163 9 262 9 435 0 124 -6
242 -14 263 -18 35 -5 37 -7 37 -45 0 -48 30 -110 67 -136 26 -18 68 -33 136
-47 l27 -5 0 -275 0 -275 25 0 25 0 0 299 0 299 -22 6 c-13 3 -36 6 -53 6 -41
1 -109 33 -129 61 -11 16 -16 45 -16 90 l0 67 -57 6 c-202 21 -515 31 -658 20z"/>
<path d="M750 1790 c-96 -5 -194 -12 -217 -15 -40 -6 -43 -9 -43 -36 0 -16 -9
-47 -20 -69 -31 -60 -81 -92 -182 -114 -16 -4 -28 -12 -28 -20 0 -10 11 -9 53
5 159 54 420 80 587 60 52 -7 163 -28 245 -47 133 -32 161 -36 250 -32 64 3
114 11 140 22 l40 17 -45 20 c-75 34 -109 77 -119 154 l-6 40 -90 6 c-189 14
-396 17 -565 9z"/>
<path d="M443 1519 c-41 -12 -107 -88 -127 -146 -18 -54 -21 -125 -5 -154 18
-34 57 -42 100 -21 39 20 40 17 7 -30 -24 -34 -23 -38 8 -38 21 0 29 9 50 54
27 59 44 156 27 156 -6 0 -13 -13 -16 -28 -7 -36 -53 -82 -82 -82 -48 0 -61
52 -36 142 27 97 131 174 131 97 0 -22 -9 -40 -30 -59 -30 -28 -30 -29 -9 -35
44 -14 89 33 89 94 0 47 -46 68 -107 50z"/>
<path d="M730 1434 c-6 -16 -12 -34 -15 -41 -2 -6 -14 -13 -27 -15 -14 -2 -29
-16 -40 -37 -24 -49 -35 -57 -30 -21 8 55 -37 80 -73 40 -23 -26 -26 -89 -4
-103 13 -8 26 -6 50 6 31 15 35 15 52 0 13 -13 20 -14 29 -5 8 8 15 8 24 1 9
-7 19 -7 32 0 13 7 22 7 29 0 8 -8 17 -8 30 0 14 7 23 7 30 0 8 -8 17 -8 30 0
14 7 23 7 31 -1 8 -8 16 -7 28 3 15 12 17 12 12 -1 -3 -8 -17 -15 -33 -15 -34
-1 -42 -17 -20 -39 28 -28 52 -19 87 33 30 48 48 57 48 25 0 -18 14 -18 30 1
11 13 14 13 26 -2 13 -17 15 -17 32 3 18 21 41 21 55 -2 11 -18 37 -18 76 2
30 15 33 15 46 -2 13 -18 16 -18 57 -3 41 16 45 16 55 0 9 -13 15 -14 29 -5
14 8 24 8 37 0 15 -9 23 -5 48 22 29 32 37 52 21 52 -5 0 -14 -11 -20 -25 -6
-14 -16 -25 -22 -25 -12 0 -14 -9 15 85 29 93 29 95 11 95 -7 0 -19 -19 -26
-43 -10 -39 -15 -43 -36 -39 -19 3 -27 -2 -41 -28 -36 -64 -42 -69 -41 -29 1
46 -7 59 -38 59 -17 0 -30 -9 -42 -31 -34 -61 -42 -67 -36 -29 11 70 -59 81
-90 15 -20 -41 -41 -48 -26 -9 14 37 12 64 -5 64 -15 0 -31 -60 -22 -84 3 -8
-1 -20 -10 -28 -15 -12 -16 -8 -9 40 9 69 -11 67 -31 -1 -17 -58 -34 -54 -22
5 11 58 11 58 -5 58 -8 0 -17 -14 -20 -32 -4 -18 -15 -44 -26 -58 -23 -30 -24
-29 -6 38 12 45 12 52 0 52 -8 0 -17 -13 -20 -28 -3 -15 -15 -39 -26 -52 l-20
-25 5 35 c3 19 8 43 12 53 5 12 2 17 -9 17 -9 0 -19 -15 -26 -37 -28 -103 -49
-78 -22 27 11 44 16 83 11 85 -11 8 -25 -21 -39 -85 -13 -57 -35 -99 -46 -87
-6 6 16 110 32 150 4 12 1 17 -10 17 -9 0 -19 -15 -26 -40 -5 -22 -15 -58 -20
-80 -10 -37 -26 -58 -36 -47 -3 3 4 40 15 83 12 48 17 82 11 88 -6 6 -13 -2
-20 -20z m-140 -83 c0 -40 -13 -81 -26 -81 -16 0 -18 37 -4 74 11 30 30 35 30
7z m620 -5 c0 -37 -18 -78 -33 -73 -22 8 -1 97 23 97 6 0 10 -11 10 -24z m120
0 c0 -14 -4 -28 -10 -31 -5 -3 -10 -15 -10 -26 0 -11 -7 -19 -16 -19 -13 0
-15 7 -11 36 10 58 47 89 47 40z m-630 -7 c0 -25 -17 -59 -30 -59 -13 0 -13
22 0 54 11 31 30 34 30 5z m750 11 c0 -6 -7 -24 -15 -40 -27 -53 -48 -30 -23
25 11 25 38 35 38 15z m-540 -130 c0 -5 -10 -10 -22 -9 -22 0 -22 1 -3 9 11 5
21 9 23 9 1 1 2 -3 2 -9z"/>
<path d="M1570 1278 c-19 -5 -48 -14 -65 -20 -16 -5 -47 -12 -69 -13 -58 -4
-116 -50 -148 -115 -52 -107 -57 -100 78 -100 117 0 117 0 159 33 51 38 79 76
100 136 l16 45 -23 -21 c-32 -29 -77 -50 -166 -79 -43 -14 -93 -34 -112 -46
l-35 -20 19 21 c11 12 54 38 95 57 122 56 140 67 173 102 34 34 33 35 -22 20z"/>
<path d="M565 1134 c-11 -2 -51 -12 -90 -20 -133 -30 -288 -109 -178 -90 21 3
241 6 490 6 l451 0 11 30 10 30 -62 0 c-34 0 -116 10 -182 21 -113 20 -400 35
-450 23z"/>
<path d="M1576 1079 l-59 -59 61 0 62 0 0 60 c0 33 -1 60 -2 59 -2 0 -30 -27
-62 -60z"/>
<path d="M155 968 c2 -13 12 -63 20 -113 9 -49 19 -98 21 -107 5 -17 50 -18
753 -18 l748 0 22 113 c12 61 24 120 27 130 5 16 -38 17 -796 17 l-800 0 5
-22z m427 -15 c25 -22 24 -53 -2 -53 -11 0 -20 7 -20 15 0 20 -26 19 -34 -1
-3 -9 -6 -36 -6 -60 0 -33 5 -46 17 -51 9 -4 19 -1 21 5 6 19 42 14 42 -6 0
-27 -20 -42 -58 -42 -51 0 -62 18 -62 101 0 53 4 77 17 91 20 22 61 23 85 1z
m137 -6 c5 -13 12 -49 16 -80 4 -32 11 -60 16 -63 5 -3 9 -14 9 -25 0 -15 -7
-19 -36 -19 -35 0 -36 1 -30 30 4 22 2 30 -9 30 -11 0 -13 -8 -8 -30 5 -29 4
-30 -31 -30 -29 0 -36 4 -36 19 0 11 4 22 9 25 11 7 26 101 23 139 -3 25 -1
27 33 27 28 0 37 -5 44 -23z m135 -27 l10 -45 11 45 c10 42 13 45 45 48 l35 3
0 -106 0 -105 -32 0 c-26 0 -33 4 -33 19 0 11 5 23 10 26 6 3 10 21 10 38 0
24 -3 28 -10 17 -5 -8 -10 -25 -10 -37 0 -18 -6 -23 -24 -23 -18 0 -26 7 -29
23 -2 12 -2 3 0 -20 4 -43 4 -43 -29 -43 l-33 0 0 105 0 106 35 -3 c33 -3 36
-6 44 -48z m238 33 c23 -20 24 -80 1 -105 -9 -10 -27 -18 -40 -18 -14 0 -23
-6 -23 -15 0 -8 5 -15 10 -15 6 0 10 -9 10 -20 0 -16 -7 -20 -32 -20 l-33 0 0
105 0 105 44 0 c27 0 51 -6 63 -17z m89 -70 c-3 -73 -1 -83 14 -83 15 0 17 10
14 83 l-4 82 30 0 c33 0 32 5 22 -113 -7 -75 -18 -92 -62 -92 -49 0 -63 23
-65 115 -3 102 -5 97 28 93 l27 -3 -4 -82z m200 77 c26 -14 26 -60 0 -60 -10
0 -21 7 -25 15 -8 21 -26 19 -26 -3 0 -11 14 -25 35 -35 31 -15 35 -21 35 -55
0 -21 -5 -43 -12 -50 -17 -17 -68 -15 -90 5 -26 23 -23 43 7 43 14 0 25 -4 25
-10 0 -5 7 -10 15 -10 29 0 14 30 -25 50 -34 17 -40 25 -40 52 0 56 50 85 101
58z m-993 -107 c-26 -2 -71 -2 -100 0 -29 2 -8 3 47 3 55 0 79 -1 53 -3z
m1220 0 c-26 -2 -71 -2 -100 0 -29 2 -8 3 47 3 55 0 79 -1 53 -3z"/>
<path d="M680 875 c0 -14 4 -25 9 -25 4 0 6 11 3 25 -2 14 -6 25 -8 25 -2 0
-4 -11 -4 -25z"/>
<path d="M1030 901 c0 -11 5 -23 11 -26 13 -8 15 -6 23 23 6 18 3 22 -13 22
-14 0 -21 -6 -21 -19z"/>
<path d="M40 925 c0 -3 16 -36 35 -74 l34 -69 -24 -63 c-14 -35 -25 -66 -25
-71 0 -4 40 -8 90 -8 l90 0 21 -42 c95 -188 252 -320 562 -475 l130 -65 132
66 c271 137 408 246 522 419 l64 97 84 0 c47 0 85 4 85 8 0 5 -11 36 -24 70
l-24 61 34 71 c19 40 34 74 34 76 0 2 -19 4 -43 4 l-42 0 -23 -112 c-13 -62
-25 -114 -27 -116 -6 -6 -1407 -9 -1485 -3 l-75 6 -19 113 -19 112 -44 0 c-23
0 -43 -2 -43 -5z m332 -315 c83 -138 218 -246 451 -361 94 -47 127 -68 127
-82 0 -16 24 -6 145 57 160 83 211 116 194 126 -6 4 10 23 39 44 70 51 155
145 199 221 24 40 45 65 56 65 16 0 16 -3 3 -35 -27 -63 -84 -139 -158 -211
-102 -99 -186 -153 -396 -259 l-92 -46 -100 51 c-272 140 -438 280 -513 434
-32 64 -32 69 -11 64 9 -2 34 -32 56 -68z"/>
</g>
</svg>
