<?xml version="1.0" standalone="no"?>
<!DOCTYPE svg PUBLIC "-//W3C//DTD SVG 20010904//EN"
 "http://www.w3.org/TR/2001/REC-SVG-20010904/DTD/svg10.dtd">
<svg version="1.0" xmlns="http://www.w3.org/2000/svg"
 width="96.000000pt" height="96.000000pt" viewBox="0 0 96.000000 96.000000"
 preserveAspectRatio="xMidYMid meet">

<g transform="translate(0.000000,96.000000) scale(0.100000,-0.100000)"
fill="#000000" stroke="none">
<path d="M365 930 c-60 -4 -122 -8 -137 -9 -25 -1 -27 -4 -22 -29 8 -39 -22
-73 -72 -81 l-39 -6 -3 -148 c-2 -126 0 -147 13 -147 13 0 15 21 15 135 l0
134 40 11 c44 12 70 42 70 81 0 25 2 26 77 33 96 8 191 8 315 -1 l98 -6 6 -34
c7 -38 40 -68 84 -78 l30 -7 0 -134 c0 -112 2 -134 15 -134 13 0 15 23 15 149
l0 148 -40 6 c-55 7 -70 22 -70 67 0 37 -2 38 -37 44 -73 10 -249 13 -358 6z"/>
<path d="M380 889 c-58 -4 -111 -7 -117 -8 -7 0 -13 -9 -13 -20 0 -31 -39 -70
-82 -81 -22 -6 -38 -14 -35 -16 3 -3 31 3 63 13 84 25 273 25 374 -1 80 -21
148 -25 193 -13 l29 8 -33 22 c-19 13 -38 36 -43 52 -6 17 -12 32 -14 35 -7 9
-217 15 -322 9z"/>
<path d="M201 734 c-60 -50 -64 -153 -5 -141 26 5 31 -2 12 -21 -9 -9 -8 -12
5 -12 11 0 25 16 37 43 10 23 19 37 19 31 1 -7 31 -10 85 -10 63 1 82 -2 79
-11 -3 -7 3 -16 12 -19 22 -9 38 18 41 66 2 35 2 35 -9 8 -6 -16 -14 -28 -18
-28 -3 0 -4 12 -2 28 l4 27 -15 -30 -16 -30 6 45 c7 52 1 50 -21 -6 l-15 -39
5 45 c4 36 3 40 -5 23 -5 -13 -15 -33 -20 -45 -8 -18 -9 -14 -5 22 4 35 3 40
-5 23 -5 -13 -16 -23 -23 -23 -8 0 -19 -10 -26 -22 -6 -13 -9 -15 -7 -6 3 10
1 20 -4 23 -6 4 -10 -3 -10 -14 0 -11 -5 -23 -11 -27 -8 -5 -10 1 -7 20 5 23
3 25 -11 14 -8 -7 -25 -24 -37 -37 -32 -36 -58 -22 -51 26 7 42 37 88 57 88
20 0 23 -21 5 -38 -19 -20 -19 -27 0 -27 19 0 40 43 32 64 -9 24 -42 19 -76
-10z m153 -79 c-4 -8 -10 -15 -15 -15 -4 0 -6 7 -3 15 4 8 10 15 15 15 4 0 6
-7 3 -15z"/>
<path d="M747 723 c-4 -3 -7 -15 -7 -25 0 -10 -6 -18 -14 -18 -8 0 -22 -10
-30 -22 l-16 -22 0 21 c0 39 -25 38 -48 -2 -11 -20 -11 -20 -12 2 0 31 -17 38
-32 13 -16 -25 -28 -26 -21 -1 4 16 1 19 -16 14 -12 -3 -21 -13 -21 -24 0 -10
-5 -21 -10 -24 -7 -4 -9 2 -4 19 3 15 2 26 -4 26 -15 0 -22 -39 -9 -47 19 -12
40 -13 53 -2 8 7 14 7 18 0 4 -5 31 -8 61 -6 57 5 79 -7 47 -24 -11 -6 -25
-23 -31 -39 -8 -19 -19 -29 -29 -27 -9 2 -73 11 -142 21 -117 16 -131 16 -207
0 -45 -9 -96 -23 -115 -31 -30 -13 -2 -14 279 -15 l313 0 29 28 c31 28 58 88
30 66 -20 -16 -140 -63 -133 -53 3 5 27 18 54 30 27 11 56 29 65 39 16 17 15
18 -18 11 -38 -9 -42 0 -25 57 10 33 8 48 -5 35z m-146 -80 c-10 -17 -10 -16
-11 3 0 23 13 41 18 25 2 -6 -1 -18 -7 -28z m60 0 c-10 -17 -10 -16 -11 3 0
23 13 41 18 25 2 -6 -1 -18 -7 -28z m-114 -5 c-3 -7 -5 -2 -5 12 0 14 2 19 5
13 2 -7 2 -19 0 -25z m183 23 c0 -6 -4 -13 -10 -16 -5 -3 -10 1 -10 9 0 9 5
16 10 16 6 0 10 -4 10 -9z"/>
<path d="M795 535 l-30 -25 33 0 c28 0 32 3 32 25 0 30 2 30 -35 0z"/>
<path d="M83 468 c4 -13 9 -42 13 -65 l7 -43 377 0 378 0 6 48 c4 26 9 55 12
65 5 16 -19 17 -396 17 l-402 0 5 -22z m221 -4 c5 -13 2 -15 -14 -11 -17 4
-20 0 -20 -25 0 -21 4 -29 14 -25 7 3 19 0 25 -6 8 -8 11 -3 13 19 0 16 1 37
0 47 -1 12 6 17 23 17 18 0 25 -5 25 -19 0 -10 3 -33 6 -50 l7 -31 -69 2 -69
3 -3 33 c-2 18 2 40 9 48 16 19 45 18 53 -2z m126 -1 c0 -15 1 -15 13 1 10 13
24 17 62 14 47 -3 50 -5 53 -31 3 -22 -1 -30 -18 -34 -12 -3 -19 -11 -16 -19
4 -11 -9 -13 -62 -12 l-67 1 0 48 c0 40 3 49 18 49 9 0 17 -7 17 -17z m168
-18 c-1 -19 2 -38 5 -42 4 -3 7 12 7 35 0 32 4 42 16 42 11 0 14 -5 10 -16 -3
-9 -6 -31 -6 -50 0 -33 -2 -35 -27 -32 -26 3 -28 7 -31 51 -2 37 0 47 12 47
11 0 15 -10 14 -35z m110 16 c3 -10 -1 -12 -17 -8 -27 7 -27 -7 1 -25 14 -9
19 -20 15 -31 -8 -22 -57 -23 -57 -1 0 13 3 14 13 5 8 -6 17 -8 20 -4 4 3 -2
12 -13 20 -20 14 -26 43 -13 57 11 11 46 2 51 -13z"/>
<path d="M480 425 c0 -19 5 -35 10 -35 6 0 10 16 10 35 0 19 -4 35 -10 35 -5
0 -10 -16 -10 -35z"/>
<path d="M520 445 c0 -8 5 -15 10 -15 6 0 10 7 10 15 0 8 -4 15 -10 15 -5 0
-10 -7 -10 -15z"/>
<path d="M451 404 c0 -11 3 -14 6 -6 3 7 2 16 -1 19 -3 4 -6 -2 -5 -13z"/>
<path d="M30 448 c1 -7 7 -24 14 -38 12 -21 12 -30 1 -57 -7 -17 -11 -34 -7
-37 3 -3 24 -6 46 -6 39 -1 43 -4 76 -56 42 -66 114 -124 237 -187 l90 -46 97
53 c123 69 177 113 218 181 32 54 34 54 81 55 26 0 47 2 47 4 0 2 -6 19 -14
37 -12 29 -12 38 0 59 19 35 17 50 -5 50 -14 0 -21 -10 -25 -37 -12 -64 -17
-73 -39 -73 -29 0 -39 -8 -61 -53 -23 -45 -123 -140 -169 -162 -18 -9 -24 -10
-13 -3 46 32 144 131 165 168 l22 40 -311 0 -310 0 19 -37 c34 -66 115 -129
245 -192 47 -23 64 -36 55 -42 -8 -5 -45 9 -101 38 -101 51 -198 140 -219 197
-11 31 -17 36 -45 36 -35 0 -38 4 -49 78 -5 32 -11 42 -26 42 -10 0 -19 -6
-19 -12z m505 -358 c-3 -5 -12 -10 -18 -10 -7 0 -6 4 3 10 19 12 23 12 15 0z"/>
</g>
</svg>
